<svg width="25" height="27" viewBox="0 0 25 27" fill="none" xmlns="http://www.w3.org/2000/svg">
<path d="M19.1973 13.4994C19.1996 13.4992 19.2018 13.4989 19.2041 13.4989C19.2704 15.6272 20.2166 17.6423 21.8524 19.0136C22.416 19.4871 22.6747 20.2129 22.5239 20.9396C22.3294 21.8789 21.4259 22.5 20.4675 22.5H2.15813C1.24454 22.5 0.373808 21.9374 0.135268 21.0566C-0.0694899 20.2994 0.183676 19.5232 0.754073 19.036C2.46526 17.5893 3.44064 15.4878 3.44064 13.2614V10.1249C3.44064 5.77558 6.96643 2.25 11.3156 2.25C11.5698 2.25 11.8207 2.26463 12.0683 2.28811C11.5902 3.30283 11.3156 4.43127 11.3156 5.625C11.3156 9.96735 14.8492 13.4999 19.1905 13.4999C19.1928 13.4999 19.195 13.4997 19.1973 13.4994Z" fill="#115B78"/>
<path d="M15.4491 23.625C15.0578 25.5475 13.3534 27 11.3159 27C9.2786 27 7.57421 25.5475 7.18262 23.625H15.4491Z" fill="#115B78"/>
<path d="M24.8154 5.62507C24.8154 8.73166 22.2971 11.2499 19.1903 11.2499C16.0837 11.2499 13.5654 8.73166 13.5654 5.62507C13.5654 2.51848 16.0837 0 19.1903 0C22.2971 0 24.8154 2.51848 24.8154 5.62507Z" fill="#F03E3A"/>
</svg>
