<svg width="28" height="27" viewBox="0 0 28 27" fill="none" xmlns="http://www.w3.org/2000/svg">
<path d="M25.4138 19.8737L21.6283 17.0346C22.5747 15.4123 22.9803 13.5195 22.9803 11.4916C22.9803 5.13742 17.8428 0 11.4887 0C5.13449 0 -0.00292969 5.13742 -0.00292969 11.4915C-0.00292969 17.8457 5.13449 22.9831 11.4887 22.9831C13.5166 22.9831 15.2741 22.4424 17.0317 21.6312L19.8708 25.4167C21.3579 27.3094 24.197 27.5798 25.9546 25.8222C27.5769 24.1999 27.4417 21.3608 25.4138 19.8737ZM11.4887 20.2793C6.62164 20.2793 2.70098 16.3586 2.70098 11.4916C2.70098 6.62457 6.62164 2.70391 11.4887 2.70391C16.3557 2.70391 20.2764 6.62457 20.2764 11.4915C20.2764 16.3585 16.3557 20.2793 11.4887 20.2793Z" fill="#B3B3B3"/>
</svg>
