<svg width="28" height="27" viewBox="0 0 28 27" fill="none" xmlns="http://www.w3.org/2000/svg">
<path fill-rule="evenodd" clip-rule="evenodd" d="M0.815797 13.5002C0.815797 6.04391 6.85969 0 14.3169 0C21.7697 0 27.8154 6.04321 27.8154 13.4995C27.8154 20.9557 21.7697 26.9996 14.3144 26.9996C11.4971 26.9996 8.88175 26.1334 6.71786 24.6593L3.34879 26.7189C1.86182 27.7304 0.171091 25.8133 1.06352 24.1286L2.7815 20.5198C1.53482 18.4736 0.815797 16.0708 0.815797 13.5002ZM10.8154 14C10.8154 15.1046 9.92 16 8.81543 16C7.71086 16 6.81543 15.1046 6.81543 14C6.81543 12.8954 7.71086 12 8.81543 12C9.92 12 10.8154 12.8954 10.8154 14ZM20.8154 16C21.92 16 22.8154 15.1046 22.8154 14C22.8154 12.8954 21.92 12 20.8154 12C19.7109 12 18.8154 12.8954 18.8154 14C18.8154 15.1046 19.7109 16 20.8154 16ZM16.8154 14C16.8154 15.1046 15.92 16 14.8154 16C13.7109 16 12.8154 15.1046 12.8154 14C12.8154 12.8954 13.7109 12 14.8154 12C15.92 12 16.8154 12.8954 16.8154 14Z" fill="#115B78"/>
</svg>
